<?xml version="1.0" encoding="UTF-8"?>
<svg id="Layer_2" data-name="Layer 2" xmlns="http://www.w3.org/2000/svg" viewBox="0 0 40 40">
  <defs>
    <style>
      .cls-1 {
        fill: #fff;
      }
    </style>
  </defs>
  <g id="Layer_1-2" data-name="Layer 1">
    <g>
      <path class="cls-1" d="M40,13.34c0,2.87-2.1,5.2-4.7,5.2h-10.42c-3.66,0-5.9-4.42-4.02-7.9l4.37-8.11c.86-1.57,2.37-2.53,4.02-2.53h6.03c2.59,0,4.7,2.34,4.7,5.2l.02,8.14Z"/>
      <path class="cls-1" d="M40,34.79c0,2.87-2.1,5.2-4.7,5.2h-10.42c-3.66,0-5.9-4.42-4.02-7.9l4.37-8.11c.86-1.57,2.37-2.53,4.02-2.53h6.03c2.59,0,4.7,2.34,4.7,5.2l.02,8.14Z"/>
      <path class="cls-1" d="M0,5.2C0,2.34,2.1,0,4.7,0h10.42c3.66,0,5.9,4.42,4.02,7.9l-4.37,8.11c-.86,1.57-2.37,2.53-4.02,2.53h-6.03C2.12,18.54.02,16.21.02,13.34l-.02-8.14Z"/>
      <path class="cls-1" d="M0,26.66c0-2.87,2.1-5.2,4.7-5.2h10.42c3.66,0,5.9,4.42,4.02,7.9l-4.37,8.11c-.86,1.57-2.37,2.53-4.02,2.53h-6.03C2.12,40,.02,37.66.02,34.8l-.02-8.14Z"/>
    </g>
  </g>
</svg>
